<svg width="49" height="24" viewBox="0 0 49 24" fill="none" xmlns="http://www.w3.org/2000/svg">
<path id="Union" fill-rule="evenodd" clip-rule="evenodd" d="M41.8241 16.5306C46.4188 12.1464 49 6.2002 49 1.01306e-06L36.8557 0C36.8557 3.12684 35.5539 6.12562 33.2368 8.33663C30.9196 10.5476 27.7769 11.7898 24.5 11.7898V23.3779C30.9978 23.3779 37.2295 20.9148 41.8241 16.5306ZM7.17588 7.03429C2.58124 11.4185 0 17.3647 0 23.5649L12.1443 23.5649C12.1443 20.4381 13.4461 17.4393 15.7632 15.2283C18.0804 13.0173 21.2231 11.7752 24.5 11.7752V0.187074C18.0022 0.187074 11.7705 2.65009 7.17588 7.03429Z" fill="#A41D21"/>
</svg>
